<svg width="80" height="80" viewBox="0 0 80 80" fill="none" xmlns="http://www.w3.org/2000/svg">
<path d="M0 18H6C36.9279 18 62 43.0721 62 74V80H74C77.3137 80 80 77.3137 80 74C80 33.1309 46.8691 0 6 0C2.68629 0 0 2.68629 0 6V18Z" fill="url(#paint0_radial_105_209)"/>
<path d="M64 74H80C80 77.3137 77.3137 80 74 80H64V74Z" fill="url(#paint1_linear_105_209)"/>
<path d="M6 0L6 16H0L4.37114e-07 6C5.81961e-07 2.68629 2.68629 -1.44847e-07 6 0Z" fill="url(#paint2_linear_105_209)"/>
<path d="M0 16H6C38.0325 16 64 41.9675 64 74V80H46V74C46 51.9086 28.0914 34 6 34H0V16Z" fill="url(#paint3_radial_105_209)"/>
<path d="M48 74H64V80H48V74Z" fill="url(#paint4_linear_105_209)"/>
<path d="M6.99382e-07 32L0 16L6 16L6 32H6.99382e-07Z" fill="url(#paint5_linear_105_209)"/>
<path d="M0 42C0 45.3137 2.68629 48 6 48C20.3594 48 32 59.6406 32 74C32 77.3137 34.6863 80 38 80H48V74C48 50.804 29.196 32 6 32H0V42Z" fill="url(#paint6_radial_105_209)"/>
<path d="M32 74H48V80H38C34.6863 80 32 77.3137 32 74Z" fill="url(#paint7_radial_105_209)"/>
<path d="M6 48C2.68629 48 5.81961e-07 45.3137 4.37114e-07 42L0 32L6 32L6 48Z" fill="url(#paint8_radial_105_209)"/>
<defs>
<radialGradient id="paint0_radial_105_209" cx="0" cy="0" r="1" gradientUnits="userSpaceOnUse" gradientTransform="translate(6 74) rotate(-90) scale(74)">
<stop offset="0.770277" stop-color="#FF4000"/>
<stop offset="1" stop-color="#8754C9"/>
</radialGradient>
<linearGradient id="paint1_linear_105_209" x1="63" y1="77" x2="80" y2="77" gradientUnits="userSpaceOnUse">
<stop stop-color="#FF4000"/>
<stop offset="1" stop-color="#8754C9"/>
</linearGradient>
<linearGradient id="paint2_linear_105_209" x1="3" y1="-1.3113e-06" x2="2.99999" y2="17" gradientUnits="userSpaceOnUse">
<stop stop-color="#8754C9"/>
<stop offset="1" stop-color="#FF4000"/>
</linearGradient>
<radialGradient id="paint3_radial_105_209" cx="0" cy="0" r="1" gradientUnits="userSpaceOnUse" gradientTransform="translate(6 74) rotate(-90) scale(58)">
<stop offset="0.723929" stop-color="#FFF700"/>
<stop offset="1" stop-color="#FF9901"/>
</radialGradient>
<linearGradient id="paint4_linear_105_209" x1="48" y1="77" x2="64" y2="77" gradientUnits="userSpaceOnUse">
<stop stop-color="#FFF700"/>
<stop offset="1" stop-color="#FF9901"/>
</linearGradient>
<linearGradient id="paint5_linear_105_209" x1="3" y1="32" x2="3" y2="16" gradientUnits="userSpaceOnUse">
<stop stop-color="#FFF700"/>
<stop offset="1" stop-color="#FF9901"/>
</linearGradient>
<radialGradient id="paint6_radial_105_209" cx="0" cy="0" r="1" gradientUnits="userSpaceOnUse" gradientTransform="translate(6 74) rotate(-90) scale(42)">
<stop offset="0.59513" stop-color="#00AAFF"/>
<stop offset="1" stop-color="#01DA40"/>
</radialGradient>
<radialGradient id="paint7_radial_105_209" cx="0" cy="0" r="1" gradientUnits="userSpaceOnUse" gradientTransform="translate(31 77) scale(17 45.3333)">
<stop stop-color="#00AAFF"/>
<stop offset="1" stop-color="#01DA40"/>
</radialGradient>
<radialGradient id="paint8_radial_105_209" cx="0" cy="0" r="1" gradientUnits="userSpaceOnUse" gradientTransform="translate(3 49) rotate(-90) scale(17 322.37)">
<stop stop-color="#00AAFF"/>
<stop offset="1" stop-color="#01DA40"/>
</radialGradient>
</defs>
</svg>
