<svg xmlns="http://www.w3.org/2000/svg" width="24" height="24" viewBox="0 0 24 24" class="SunSVG__SVG-sc-192wt3d-0 jOrPHu" transform-origin="12px 11.999148885835893px" style="transform: none; transform-origin: 12px 11.9991px;"><path id="icons8-sun_1_" data-name="icons8-sun (1)" d="M12,0a.945.945,0,0,0-1,1V2a1,1,0,0,0,2,0V1A.945.945,0,0,0,12,0ZM4.2,3.2a.986.986,0,0,0-.7.3.967.967,0,0,0,0,1.4l.7.7A.99.99,0,0,0,5.6,4.2l-.7-.7A.991.991,0,0,0,4.2,3.2Zm15.6,0a.991.991,0,0,0-.7.3l-.7.7a.99.99,0,0,0,1.4,1.4l.7-.7a.967.967,0,0,0,0-1.4A.986.986,0,0,0,19.8,3.2ZM12,5a7,7,0,1,0,7,7,7,7,0,0,0-7-7ZM1,11a1,1,0,0,0,0,2H2a1,1,0,0,0,0-2Zm21,0a1,1,0,0,0,0,2h1a1,1,0,0,0,0-2ZM4.9,18.1a.991.991,0,0,0-.7.3l-.7.7a.99.99,0,0,0,1.4,1.4l.7-.7a.967.967,0,0,0,0-1.4A.986.986,0,0,0,4.9,18.1Zm14.2,0a.986.986,0,0,0-.7.3.967.967,0,0,0,0,1.4l.7.7a.99.99,0,0,0,1.4-1.4l-.7-.7A.991.991,0,0,0,19.1,18.1ZM12,21a.945.945,0,0,0-1,1v1a1,1,0,0,0,2,0V22A.945.945,0,0,0,12,21Z" fill="#ffe3a4"></path></svg>
